<svg width="180" height="67" viewBox="0 0 180 67" fill="none" xmlns="http://www.w3.org/2000/svg">
<path fill-rule="evenodd" clip-rule="evenodd" d="M173.232 0.621094L162.807 6.39013L165.447 6.78991C164.937 8.58276 164.07 11.7661 163.103 15.4944C160.911 15.5039 158.902 15.5231 157.566 15.5901L157.002 15.6188C156.838 13.834 156.342 12.2693 155.518 10.9438C153.341 7.43159 149.06 5.74248 142.463 5.77597C130.996 5.83339 123.811 11.1974 121.102 21.7292C119.846 26.6148 120.098 30.5241 121.854 33.3569C124.003 36.8212 128.22 38.5103 134.733 38.5103H134.917C144.223 38.4673 150.709 34.9216 154.273 27.9594L155.246 27.9976C155.982 28.0263 157.686 28.079 159.867 28.0981C158.926 31.8113 158.146 35.0412 157.746 36.8069L157.298 38.7639H157.358L156.126 43.5681C149.184 43.549 139.238 43.5968 132.036 43.6782L133.269 38.8836L121.558 39.0223L121.562 39.008L121.266 39.8214C119.738 44.5825 116.101 58.7223 114.557 65.9094L114.321 67.0004H161.855L161.955 66.6559C164.156 59.0333 166.984 47.8028 168.641 40.654L169.085 38.7352H169.109L169.393 37.7304C171.115 31.6819 175.003 16.414 176.919 8.52688L179.999 8.99318L173.232 0.621094ZM144.879 21.6048C144.251 24.05 142.791 26.8588 137.038 26.8875C133.817 26.8971 132.821 26.0645 132.513 25.5621C132.164 24.9974 132.164 24.0213 132.513 22.6623C133.181 20.0688 134.633 17.4084 140.354 17.3797H140.438C143.551 17.3797 144.543 18.2266 144.859 18.7338C145.215 19.308 145.223 20.2746 144.879 21.6048ZM152.849 56.3058C147.888 56.4255 135.037 56.4925 128.756 56.4302L129.08 55.167C135.909 55.1861 145.703 55.1383 153.169 55.0569L152.849 56.3058ZM71.4357 6H102.579L102.259 7.57906C100.69 15.3452 96.5733 31.0783 94.3048 38.5142L93.9887 39.5478L93.0685 39.61C89.6458 39.8422 82.8224 39.7835 77.2859 39.7359L77.121 39.7344C76.329 39.7254 75.562 39.7206 74.8332 39.7161H74.8324L74.8315 39.7161L74.7004 39.7153C73.9443 42.6533 72.936 46.5579 72.1439 49.5437C78.2132 49.3906 89.1996 49.3954 93.8207 49.4911L95.485 49.5246L95.169 51.4817C94.7529 54.0847 93.7447 58.0084 92.8245 60.6067L92.5924 61.267H57.0005L57.3126 59.7215C58.9369 51.7018 62.9938 36.2414 65.2663 28.7863L65.5904 27.7192L66.5386 27.6857C70.3395 27.547 80.6177 27.5422 84.9307 27.5805C85.6869 24.6425 86.6991 20.7187 87.4953 17.7281C82.6622 17.8047 73.5322 17.8812 70.1954 17.7855L68.5431 17.7377L71.4357 6.00479V6ZM42.1733 28.1989L41.2731 28.2324L41.2691 28.2276L38.0764 41.0084L39.7287 41.0563C41.041 41.0945 43.3575 41.1424 45.8461 41.1185C42.7134 53.3298 40.2969 62.9956 39.6127 66.0628L39.4047 67.0007L51.2593 66.9959C53.5558 59.0288 64.3502 17.0354 66.4627 7.87211L66.8428 6.23084H55.0161L54.8201 6.94381C54.0199 9.83875 51.8274 18.1312 49.2668 28.0793C46.5742 28.0601 43.9737 28.1367 42.1733 28.1989ZM40.9961 51.9338L39.3678 51.8621C37.4073 51.7711 34.5547 51.7616 32.3742 51.819C34.9028 41.7944 38.2275 28.8844 40.6401 19.6875C42.5445 19.7545 44.693 19.7258 46.2733 19.6062L47.1375 19.5392L50.0582 7.90681H32.1982L32.0662 8.33267L32.0682 8.31963L32.1941 7.90681H32.1344L32.1282 7.94445L32.1342 7.90681H14.2862L13.9741 8.9308C11.6976 16.3859 1.92345 54.1349 0.351102 61.9058L-0.000976562 63.6571H38.0915L40.9961 51.9386V51.9338ZM20.5796 52.0391L19.3433 51.9578C18.4551 51.9003 17.3029 51.8716 16.1506 51.8716C15.5665 51.8716 14.9824 51.8764 14.4342 51.8908C16.9668 41.8613 20.2915 28.937 22.7041 19.745C24.6885 19.7737 26.717 19.7545 28.2893 19.6923L28.9054 19.6684C26.3329 29.2959 22.8841 42.6604 20.5756 52.0343L20.5796 52.0391ZM110.252 6.23084H122.151H122.155L121.839 7.60414C119.726 16.7675 108.928 58.7609 106.635 66.7279L106.555 67.0007H94.6568L94.9288 65.7901C96.6932 57.9665 108.136 13.7625 110.128 6.67106L110.252 6.23084Z" fill="white"/>
</svg>
