<svg width="193" height="46" viewBox="0 0 193 46" fill="none" xmlns="http://www.w3.org/2000/svg">
<g opacity="0.9">
<rect width="193" height="38" rx="4" fill="black" fill-opacity="0.9"/>
<path d="M12.9297 24H19.3555V22.9062H14.6387V22.8242L16.9082 20.4863C18.6582 18.6816 19.1709 17.8203 19.1777 16.7129C19.1709 15.1748 17.8994 13.9648 16.1016 13.9648C14.3105 13.9648 12.957 15.1406 12.9707 16.8906H14.1328C14.1396 15.7832 14.8779 15.0381 16.0605 15.0312C17.1748 15.0381 18.0225 15.6943 18.0293 16.7129C18.0225 17.6289 17.4619 18.2988 16.293 19.543L12.916 23.0977L12.9297 24ZM31.8379 22.6738H26.7793V19.8848H25.7266V22.6738H20.709V23.5762H31.8379V22.6738ZM21.3242 19.4746L21.748 20.3223C23.7031 19.9805 25.4873 18.9961 26.2529 17.4717C27.0322 18.9961 28.8164 19.9805 30.7578 20.3223L31.168 19.4746C28.8369 19.0986 26.8066 17.6836 26.8066 15.7832H30.7715V14.8945H26.7793V13.2129H25.7266V14.8945H21.748V15.7832H25.7129C25.6992 17.6836 23.6689 19.0986 21.3242 19.4746ZM42.4609 14.0605H36.8418V19.6523H42.4609V14.0605ZM37.8945 18.791V14.9355H41.4219V18.791H37.8945ZM38.2227 24.8477H46.3848V23.9453H39.2754V21.0195H38.2227V24.8477ZM44.7578 21.8672H45.8242V17.5605H47.6562V16.6582H45.8242V12.9531H44.7578V21.8672ZM58.8398 12.9531H57.8008V25.1074H58.8398V12.9531ZM48.5723 18.2031C48.5791 20.7871 49.6045 22.4346 51.1836 22.4277C52.6807 22.4346 53.6992 20.9512 53.8018 18.5859H55.3672V24.4922H56.3926V13.2129H55.3672V17.6973H53.7949C53.6582 15.4072 52.6602 13.9854 51.1836 13.9785C49.6045 13.9854 48.5791 15.6191 48.5723 18.2031ZM49.584 18.2031C49.5703 16.2275 50.1992 14.9902 51.1836 14.9902C52.1748 14.9902 52.8037 16.2275 52.7969 18.2031C52.8037 20.1719 52.1748 21.416 51.1836 21.4023C50.1992 21.416 49.5703 20.1719 49.584 18.2031ZM74.002 12.9531H72.9355V25.1074H74.002V12.9531ZM64.1035 21.8672L64.2676 22.7832C66.5234 22.7832 69.4971 22.7422 72.2109 22.3047L72.1289 21.4844C71.0078 21.6348 69.8184 21.7168 68.6426 21.7715V20.4863C70.085 20.3223 71.0283 19.4883 71.0215 18.2852C71.0283 16.9111 69.8389 16.0225 68.082 16.0293C66.3252 16.0225 65.1562 16.9111 65.1699 18.2852C65.1562 19.502 66.0996 20.3359 67.5625 20.4863V21.8125C66.332 21.8535 65.1426 21.8604 64.1035 21.8672ZM64.3633 15.332H71.8145V14.457H68.6426V12.9668H67.5625V14.457H64.3633V15.332ZM66.168 18.2852C66.1611 17.4375 66.9541 16.8633 68.082 16.8633C69.2168 16.8633 70.0029 17.4375 69.9961 18.2852C70.0029 19.126 69.2168 19.6797 68.082 19.666C66.9541 19.6797 66.1611 19.126 66.168 18.2852ZM86.1562 12.9668H85.0762V20.1582H82.5605V20.9375H85.0762V22.1953H86.1562V12.9668ZM76.0664 18.5996L76.2168 19.4746C77.2354 19.4746 78.4043 19.4746 79.6348 19.4268V21.7715H80.7148V19.3721C81.8291 19.3037 82.9707 19.1943 84.0508 19.0234L83.9824 18.2441C81.3779 18.5654 78.3291 18.5859 76.0664 18.5996ZM77.0508 15.5781C77.0439 16.877 78.2607 17.6836 80.0586 17.6836C81.8428 17.6836 83.0596 16.877 83.0664 15.5781C83.0596 14.2998 81.8428 13.459 80.0586 13.459C78.2607 13.459 77.0439 14.2998 77.0508 15.5781ZM77.8164 24.8477H86.457V23.9453H78.8965V21.293H77.8164V24.8477ZM78.0762 15.5781C78.0625 14.7988 78.8691 14.2656 80.0586 14.2793C81.2139 14.2656 82.0342 14.7988 82.041 15.5781C82.0342 16.3711 81.2139 16.8838 80.0586 16.8906C78.8691 16.8838 78.0625 16.3711 78.0762 15.5781ZM97.6406 12.9531H96.5742V25.1074H97.6406V18.8047H99.6094V17.9023H97.6406V12.9531ZM88.3164 21.9492L88.918 22.7969C92.876 20.8418 94.4893 17.7041 94.4961 14.2656H88.877V15.168H93.4092C93.1631 18.0459 91.4541 20.3906 88.3164 21.9492ZM110.369 12.9531H109.303V19.4746H110.369V12.9531ZM100.621 16.3438C100.614 17.998 101.961 19.1396 103.807 19.1328C105.652 19.1396 106.985 17.998 106.992 16.3438C106.985 14.6826 105.652 13.541 103.807 13.5547C101.961 13.541 100.614 14.6826 100.621 16.3438ZM101.674 16.3438C101.66 15.2295 102.556 14.4502 103.807 14.457C105.044 14.4502 105.939 15.2295 105.939 16.3438C105.939 17.4512 105.044 18.2373 103.807 18.2441C102.556 18.2373 101.66 17.4512 101.674 16.3438ZM102.494 24.9434H110.369V20.0898H109.303V21.5664H103.561V20.0898H102.494V24.9434ZM103.561 24.0684V22.4277H109.303V24.0684H103.561ZM116.412 13.6367H115.332L112.146 25.4902H113.213L116.412 13.6367ZM128.238 22.7012H123.166V20.4043H127.117V19.5156H119.57V17.5332H126.83V13.8555H118.477V14.7441H125.777V16.6582H118.504V20.4043H122.113V22.7012H117.109V23.6035H128.238V22.7012ZM138.793 14.252H130.412V15.1406H137.74V15.4688C137.74 16.959 137.74 18.7773 137.248 21.2656L138.342 21.375C138.793 18.7295 138.793 17 138.793 15.4688V14.252ZM129.209 23.3164H140.283V22.4277H129.209V23.3164ZM151.344 12.9668H150.277V21.8535H151.344V12.9668ZM141.596 16.7949C141.589 18.5654 142.963 19.7959 144.781 19.7891C146.6 19.7959 147.96 18.5654 147.967 16.7949C147.96 15.0449 146.6 13.8213 144.781 13.8145C142.963 13.8213 141.589 15.0449 141.596 16.7949ZM142.648 16.7949C142.635 15.6055 143.551 14.7578 144.781 14.7578C145.991 14.7578 146.914 15.6055 146.914 16.7949C146.914 18.0049 145.991 18.8457 144.781 18.8457C143.551 18.8457 142.635 18.0049 142.648 16.7949ZM143.496 24.8477H151.727V23.9453H144.562V20.9512H143.496V24.8477ZM162.814 12.9531H161.748V25.1074H162.814V18.8594H164.852V17.9707H162.814V12.9531ZM153.34 15.7969H160.572V14.9082H157.537V13.1035H156.471V14.9082H153.34V15.7969ZM154.037 19.5977C154.03 21.2451 155.288 22.3867 157.018 22.3867C158.733 22.3867 159.984 21.2451 159.998 19.5977C159.984 17.957 158.733 16.8086 157.018 16.8086C155.288 16.8086 154.03 17.957 154.037 19.5977ZM155.062 19.5977C155.056 18.4971 155.883 17.7041 157.018 17.7109C158.139 17.7041 158.959 18.4971 158.973 19.5977C158.959 20.7051 158.139 21.4844 157.018 21.4707C155.883 21.4844 155.056 20.7051 155.062 19.5977ZM175.557 12.9531H174.477V25.1074H175.557V12.9531ZM165.658 21.9492L166.246 22.8242C170.32 20.8691 171.947 17.7725 171.961 14.2793H166.219V15.1543H170.867C170.628 18.0596 168.946 20.3906 165.658 21.9492ZM179.576 14.1016H178.236L178.332 21.2109H179.48L179.576 14.1016ZM178.031 23.1934C178.018 23.6787 178.428 24.0752 178.906 24.082C179.392 24.0752 179.788 23.6787 179.781 23.1934C179.788 22.7148 179.392 22.3184 178.906 22.3184C178.428 22.3184 178.018 22.7148 178.031 23.1934Z" fill="white"/>
<path d="M90.5 38H102.5L96.5 46L90.5 38Z" fill="black" fill-opacity="0.9"/>
</g>
</svg>
